# xmcd
#
# Track frame offsets:
#	150
#	11529
#	23645
#	43408
#	55780
#	68899
#	82703
#	95281
#	107713
#	120216
#	136803
#	149818
#	161710
#	171793
#	183922
#	195041
#	205918
#	216234
#	226322
#	236169
#
# Disc length: 3444 seconds
#
# Revision: 0
# Processed by: cddbd v1.5.1PL0 Copyright (c) Steve Scherf et al.
# Submitted via: dBpowerAMP V4.0
#
DISCID=090d7214
DTITLE=John Lee Hooker - John Lee Hooker Classics
DYEAR=1900
DGENRE=Blues
TTITLE0=Boogie Chillen
TTITLE1=Crawling Kingsnake
TTITLE2=House Rent Boogie
TTITLE3=Hobo Blues
TTITLE4=Baby Lee
TTITLE5=The Road is so Rough
TTITLE6=Trouble Blues
TTITLE7=I'm so Excited
TTITLE8=Crawlin' Black Spider
TTITLE9=Mama You Got A Daughter
TTITLE10=No more Doggin'
TTITLE11=Whiskey and Women
TTITLE12=Want Ad Blues
TTITLE13=I'm Mad Again
TTITLE14=Boom Boom
TTITLE15=Send me your pillow
TTITLE16=Big Legs Tight Skirt
TTITLE17=Old Time Shimmy
TTITLE18=Dimples
TTITLE19=One Bourbon, One Scotch, One Beer
EXTD=
EXTT0=
EXTT1=
EXTT2=
EXTT3=
EXTT4=
EXTT5=
EXTT6=
EXTT7=
EXTT8=
EXTT9=
EXTT10=
EXTT11=
EXTT12=
EXTT13=
EXTT14=
EXTT15=
EXTT16=
EXTT17=
EXTT18=
EXTT19=
PLAYORDER=
